<?xml version="1.0" encoding="utf-8"?>
<!-- Generator: Adobe Illustrator 27.3.1, SVG Export Plug-In . SVG Version: 6.00 Build 0)  -->
<svg version="1.1" id="Laag_1" xmlns="http://www.w3.org/2000/svg" xmlns:xlink="http://www.w3.org/1999/xlink" x="0px" y="0px"
	 viewBox="0 0 1536 396" style="enable-background:new 0 0 1536 396;" xml:space="preserve">
<style type="text/css">
	.st0{opacity:0.9;fill:#333333;}
	.st1{fill:#3C3C3C;}
	.st2{fill:none;}
	.st3{fill:#E6E6E6;}
</style>
<rect x="600" y="-536" transform="matrix(-1.836970e-16 1 -1 -1.836970e-16 966 -570)" class="st0" width="336" height="1468"/>
<g>
	<path class="st1" d="M737.6,153.1l55-30.7c-18.6-26.1-49.2-43.3-83.1-43.3c-7.9,0-15.3,0.8-22.7,2.5L737.6,153.1z"/>
	<path class="st1" d="M804.6,144.7l-52.1,29l45.1,63.1c9.1-15.6,14.5-34.1,14.5-53.4C811.6,169.5,809.1,156.5,804.6,144.7z"/>
	<path class="st1" d="M799.2,133.4l0.4,0.4C799.6,133.8,799.2,133.4,799.2,133.4z"/>
	<polygon class="st1" points="683.9,120.7 683.9,183 715.7,165.3 	"/>
	<path class="st1" d="M659.1,196.9V92.5c-31,17.7-52.1,51.8-52.1,90.9c0,13.9,2.5,26.9,7.4,38.7L659.1,196.9z"/>
	<path class="st1" d="M730.6,185.9L683.9,212v72.8c8.3,2.1,16.5,3.4,25.2,3.4c28.1,0,53.7-11.4,71.9-30.3L730.6,185.9z"/>
	<path class="st1" d="M619.4,233.5l-0.4-0.8C619,233.1,619.4,233.5,619.4,233.5z"/>
	<path class="st1" d="M659.1,225.9L626,244.4c8.7,12.2,19.8,22.7,33.1,30.3V225.9z"/>
</g>
<polygon class="st2" points="683.5,183.8 716.1,166.1 684.1,121.2 "/>
<polygon class="st2" points="659.9,30 649.6,30 659.8,44.1 "/>
<polygon class="st2" points="738.2,154 966.1,30 684.9,30 684.4,78.7 "/>
<path class="st3" d="M649.6,30h-15.4c8.4,11.8,16.8,23.6,25.3,35.4l0.2-21.2L649.6,30z"/>
<path class="st3" d="M634.3,30h-15.4l40.4,56.6l0.2-21.2C651.1,53.6,642.7,41.8,634.3,30z"/>
<path class="st3" d="M684.1,121.2l32.1,44.9l11.1-6c-14.3-20-28.6-40.1-42.9-60.1L684.1,121.2z"/>
<path class="st3" d="M684.3,100c14.3,20,28.6,40.1,42.9,60.1l11.1-6l-53.8-75.3L684.3,100z"/>
<path class="st3" d="M992.3,30C910,74.8,827.8,119.5,745.6,164.3l7.3,10.2L1018.4,30H992.3z"/>
<path class="st3" d="M738.2,154l7.3,10.2C827.8,119.5,910,74.8,992.3,30h-26.1L738.2,154z"/>
<path class="st3" d="M683.5,183.8l-0.1,14.3c13.4-7.3,26.7-14.5,40.1-21.8l-7.3-10.2L683.5,183.8z"/>
<path class="st3" d="M683.4,198.1l-0.1,14.3l47.5-25.9l-7.3-10.2C710.1,183.6,696.7,190.9,683.4,198.1z"/>
<path class="st3" d="M734.5,170.3c-3.7,2-7.4,4-11.1,6l7.3,10.2l11.1-6C739.4,177.1,736.9,173.7,734.5,170.3z"/>
<path class="st3" d="M734.5,170.3c2.4,3.4,4.9,6.8,7.3,10.2l11.1-6l-7.3-10.2C741.9,166.3,738.2,168.3,734.5,170.3z"/>
<path class="st3" d="M716.1,166.1l7.3,10.2c3.7-2,7.4-4,11.1-6c-2.4-3.4-4.9-6.8-7.3-10.2L716.1,166.1z"/>
<path class="st3" d="M727.2,160.1c2.4,3.4,4.9,6.8,7.3,10.2c3.7-2,7.4-4,11.1-6l-7.3-10.2L727.2,160.1z"/>
<path class="st3" d="M672.1,61.4c0.1-10.5,0.2-21,0.3-31.4h-12.5l-0.1,14.1L672.1,61.4z"/>
<polygon class="st2" points="656.9,366 658.1,226.1 401.1,366 "/>
<path class="st3" d="M889.6,366L752.9,174.5l-11.1,6C786,242.4,830.1,304.2,874.3,366H889.6z"/>
<path class="st3" d="M401.1,366l257-139.9l0.1-14.3C563.8,263.2,469.4,314.6,374.9,366H401.1z"/>
<path class="st3" d="M741.8,180.5l-11.1,6L858.9,366h15.4C830.1,304.2,786,242.4,741.8,180.5z"/>
<path class="st3" d="M658.2,211.8l0.1-14.3L348.8,366h26.1C469.4,314.6,563.8,263.2,658.2,211.8z"/>
<path class="st3" d="M681.9,366l1.4-153.6l-12.6,6.8c-0.4,48.9-0.9,97.8-1.3,146.7H681.9z"/>
<path class="st3" d="M669.4,366c0.4-48.9,0.9-97.8,1.3-146.7l-12.6,6.8L656.9,366H669.4z"/>
<path class="st3" d="M671.7,103.9l-12.3-17.3l-1,110.9l12.6-6.8C671.2,161.7,671.5,132.8,671.7,103.9z"/>
<path class="st3" d="M672.1,61.4l12.3,17.3l0.4-48.7h-12.5C672.3,40.5,672.2,51,672.1,61.4z"/>
<path class="st3" d="M684.1,121.2l-12.3-17.3c-0.3,28.9-0.5,57.8-0.8,86.8l12.6-6.8L684.1,121.2z"/>
<path class="st3" d="M659.8,44.1l-0.2,21.2c4.1,5.8,8.2,11.5,12.3,17.3c0.1-7.1,0.1-14.2,0.2-21.2L659.8,44.1z"/>
<path class="st3" d="M671.9,82.7c-4.1-5.8-8.2-11.5-12.3-17.3l-0.2,21.2l12.3,17.3C671.8,96.8,671.8,89.7,671.9,82.7z"/>
<path class="st3" d="M684.3,100c-4.1-5.8-8.2-11.5-12.3-17.3c-0.1,7.1-0.1,14.2-0.2,21.2l12.3,17.3L684.3,100z"/>
<path class="st3" d="M684.4,78.7l-12.3-17.3c-0.1,7.1-0.1,14.2-0.2,21.2c4.1,5.8,8.2,11.5,12.3,17.3L684.4,78.7z"/>
<path class="st3" d="M670.8,205c0-4.8,0.1-9.5,0.1-14.3l-12.6,6.8l-0.1,14.3C662.4,209.5,666.6,207.2,670.8,205z"/>
<path class="st3" d="M670.9,190.7c0,4.8-0.1,9.5-0.1,14.3c4.2-2.3,8.4-4.6,12.6-6.8l0.1-14.3L670.9,190.7z"/>
<path class="st3" d="M670.8,205c0,4.8-0.1,9.5-0.1,14.3l12.6-6.8l0.1-14.3C679.2,200.4,675,202.7,670.8,205z"/>
<path class="st3" d="M670.8,205c-4.2,2.3-8.4,4.6-12.6,6.8l-0.1,14.3l12.6-6.8C670.7,214.5,670.8,209.7,670.8,205z"/>
</svg>
