<?xml version="1.0" encoding="utf-8"?>
<!-- Generator: Adobe Illustrator 27.3.1, SVG Export Plug-In . SVG Version: 6.00 Build 0)  -->
<svg version="1.1" id="Layer_1" xmlns="http://www.w3.org/2000/svg" xmlns:xlink="http://www.w3.org/1999/xlink" x="0px" y="0px"
	 viewBox="0 0 800 800" style="enable-background:new 0 0 800 800;" xml:space="preserve">
<style type="text/css">
	.st0{fill:#FFFFFF;}
</style>
<path class="st0" d="M204.3,0c130,0,259.9,0,389.9,0c2.5,0.5,5,1.1,7.6,1.4c21.8,2.4,43.2,7.2,63,16.6
	c85.8,40.6,132,108.5,133.3,203.4c1.7,118.5,0.5,237,0.4,355.5c-0.1,45.9-12.4,88.5-39.1,125.9c-45.2,63.5-107.5,95.3-185.5,95.5
	c-116.4,0.3-232.9,0.2-349.3-0.1c-15,0-30.3-0.8-44.9-4.1C89.2,774.3,31.4,719.3,6.6,630c-3.2-11.7-4.4-23.9-6.6-35.9
	c0-130,0-259.9,0-389.9c1.3-8.2,2.2-16.4,4-24.5C24.3,89.3,79.1,31.4,168.5,6.5C180.1,3.3,192.3,2.1,204.3,0z M70.8,398.4
	c0,57.9,0,115.9,0,173.8c0,18.3,1.8,36.3,8,53.6c22.5,63.2,77,101.6,145.6,101.7c116.4,0.2,232.8,0.4,349.2-0.3
	c17.4-0.1,35.6-2.5,52-8c63.9-21.5,101.9-76.8,102-145.8c0.2-116.2,0.4-232.3-0.3-348.5c-0.1-17.4-2.5-35.6-8-52
	c-21.3-63.5-76.4-102-144.9-102.2c-116.9-0.3-233.9-0.2-350.8,0c-52,0.1-94.1,20.9-125,63c-19.9,27.1-28,58.1-27.9,91.5
	C70.8,283.1,70.8,340.7,70.8,398.4z"/>
<path class="st0" d="M605,399.5c-0.4,113.3-93.6,206.1-206.3,205.4c-113.5-0.6-206.1-93.9-205.2-206.5
	c0.9-113.3,93.2-205.2,205.9-205.1C512.5,193.6,605.4,286.7,605,399.5z M534,399.1c-0.1-74.4-60.7-134.8-134.9-134.7
	c-74.4,0.1-134.8,60.7-134.7,134.9c0.1,74.4,60.6,134.8,134.9,134.7C473.7,533.9,534.1,473.3,534,399.1z"/>
<path class="st0" d="M613.3,237.1c-28.2-0.1-51.6-23.5-51.7-51.7c-0.1-28.4,23.6-52,52.2-51.8c28.4,0.2,51.5,23.3,51.7,51.6
	C665.7,213.6,641.9,237.3,613.3,237.1z"/>
</svg>
