<?xml version="1.0" encoding="utf-8"?>
<!-- Generator: Adobe Illustrator 27.3.1, SVG Export Plug-In . SVG Version: 6.00 Build 0)  -->
<svg version="1.1" id="Layer_1" xmlns="http://www.w3.org/2000/svg" xmlns:xlink="http://www.w3.org/1999/xlink" x="0px" y="0px"
	 viewBox="0 0 63.7 60.4" style="enable-background:new 0 0 63.7 60.4;" xml:space="preserve">
<style type="text/css">
	.st0{fill:none;stroke:#FFFFFF;stroke-width:6;stroke-miterlimit:10;}
	.st1{fill:#FFFFFF;}
</style>
<circle cx="52.9" cy="103.3" r="24.8"/>
<line class="st0" x1="43.8" y1="128.1" x2="43.8" y2="79.2"/>
<line class="st0" x1="73.3" y1="119.9" x2="43.8" y2="79.2"/>
<line class="st0" x1="74.7" y1="91.4" x2="31.2" y2="115.3"/>
<g>
	<path class="st1" d="M38.7,23L52,15.7C47.5,9.5,40.1,5.4,31.9,5.4c-1.9,0-3.7,0.2-5.5,0.6L38.7,23z"/>
	<path class="st1" d="M54.9,21l-12.6,6.9l10.9,15c2.2-3.7,3.5-8.1,3.5-12.7C56.6,26.9,56,23.8,54.9,21z"/>
	<path class="st1" d="M53.6,18.3l0.1,0.1C53.7,18.4,53.6,18.3,53.6,18.3z"/>
	<polygon class="st1" points="25.7,15.3 25.7,30.1 33.4,25.9 	"/>
	<path class="st1" d="M19.7,33.4V8.6C12.2,12.8,7.1,20.9,7.1,30.2c0,3.3,0.6,6.4,1.8,9.2L19.7,33.4z"/>
	<path class="st1" d="M37,30.8L25.7,37v17.3c2,0.5,4,0.8,6.1,0.8c6.8,0,13-2.7,17.4-7.2L37,30.8z"/>
	<path class="st1" d="M10.1,42.1L10,41.9C10,42,10.1,42.1,10.1,42.1z"/>
	<path class="st1" d="M19.7,40.3l-8,4.4c2.1,2.9,4.8,5.4,8,7.2V40.3z"/>
</g>
<g>
	<path d="M129.4,100.4l13.3-7.3c-4.5-6.2-11.9-10.3-20.1-10.3c-1.9,0-3.7,0.2-5.5,0.6L129.4,100.4z"/>
	<path d="M145.6,98.4l-12.6,6.9l10.9,15c2.2-3.7,3.5-8.1,3.5-12.7C147.3,104.3,146.7,101.2,145.6,98.4z"/>
	<path d="M144.3,95.7L144.3,95.7C144.4,95.8,144.3,95.7,144.3,95.7z"/>
	<polygon points="116.4,92.7 116.4,107.5 124.1,103.3 	"/>
	<path d="M110.4,110.8V86c-7.5,4.2-12.6,12.3-12.6,21.6c0,3.3,0.6,6.4,1.8,9.2L110.4,110.8z"/>
	<path d="M127.7,108.2l-11.3,6.2v17.3c2,0.5,4,0.8,6.1,0.8c6.8,0,13-2.7,17.4-7.2L127.7,108.2z"/>
	<path d="M100.8,119.5l-0.1-0.2C100.7,119.4,100.8,119.5,100.8,119.5z"/>
	<path d="M110.4,117.7l-8,4.4c2.1,2.9,4.8,5.4,8,7.2V117.7z"/>
</g>
</svg>
